<?xml version="1.0" encoding="utf-8"?>
<!-- Generator: Adobe Illustrator 16.0.0, SVG Export Plug-In . SVG Version: 6.00 Build 0)  -->
<!DOCTYPE svg PUBLIC "-//W3C//DTD SVG 1.1 Tiny//EN" "http://www.w3.org/Graphics/SVG/1.1/DTD/svg11-tiny.dtd">
<svg version="1.1" baseProfile="tiny" id="Layer_1" xmlns="http://www.w3.org/2000/svg" xmlns:xlink="http://www.w3.org/1999/xlink"
	 x="0px" y="0px" width="150px" height="150px" viewBox="0 0 150 150" xml:space="preserve">
<text transform="matrix(1 0 0 1 1.3828 60.6772)" font-family="'CenturyGothic'" font-size="60">DAW</text>
<polygon points="74.831,65.793 70.884,79.541 74.831,92.706 78.781,79.253 "/>
<polygon points="51.956,107.044 38.167,103.226 25.049,107.312 38.537,111.123 "/>
<polygon points="74.712,122.085 70.764,135.833 74.712,149 78.662,135.545 "/>
<polygon points="120.307,107.164 106.518,103.346 93.401,107.431 106.889,111.243 "/>
<polygon points="101.877,88.068 94.822,91.171 90.74,97.343 97.667,94.34 "/>
<polygon points="57.524,120.835 50.469,123.938 46.387,130.109 53.314,127.106 "/>
<polygon points="47.514,86.861 51.088,93.689 57.524,97.343 54.057,90.635 "/>
<polygon points="90.74,120.835 94.314,127.663 100.75,131.316 97.283,124.608 "/>
</svg>
