<svg id="Layer_1" data-name="Layer 1" xmlns="http://www.w3.org/2000/svg" viewBox="0 0 406.53 405.45"><defs><style>.cls-1{fill:#e63d3c;}</style></defs><title>websolutionslogo</title><path class="cls-1" d="M106.4,336.52c11.38-29.76,59.22-45.39,83.45-30.22,8,5,11.43,12.08,15.11,19.42,16.94,33.86,36.44,69.34,43.88,81.29,24.71,39.7,72.22,70.14,117.27,74.1,21.63,1.9,38.79-2.65,39.57.72,1.16,5-35.06,22-72.66,27.34-72.92,10.4-131.36-25.68-143.88-33.81-9.24-6-59.33-39.5-79.86-99.28C102.67,356.84,102.87,345.76,106.4,336.52Z" transform="translate(-102.2 -105.6)"/><path class="cls-1" d="M475.47,412.06c.72.84.91,3.08-12.95,22.3-10.17,14.1-12.79,16.4-16.55,18-2.79,1.18-5.69,1.75-16.55,1.44a263.9,263.9,0,0,1-27.34-2.16c-26.79-3.84-25.47-2.06-36.69-4.32A147.59,147.59,0,0,1,312.88,425c-18.83-12.75-29.83-26.65-36-34.53-16-20.58-24.1-40.43-28.06-50.36-10.31-25.87-7.62-32.79-18-46-3.66-4.68-16.18-20.69-33.81-23.74-41.1-7.12-82.12,60.92-92.81,53.24-4-2.88-.92-14.39-.72-15.11,1.91-6.89,6.17-10.56,14.39-18.71,14.06-13.93,11.45-12.93,18-18.71,4.34-3.83,18.42-16.06,38.13-23,11.06-3.91,41.26-14.57,66.19,0,19.43,11.36,27.37,33.2,33.09,48.92,3.83,10.54,3.32,13.71,10.79,36,7.73,23,11.57,29.44,12.95,31.65,8.7,14,19.3,22,26.62,27.34,4,3,23.83,17.18,54.68,23.74,25.86,5.5,66.7,7.14,88.49-2.16C468.59,412.75,474,410.33,475.47,412.06Z" transform="translate(-102.2 -105.6)"/><path class="cls-1" d="M504.24,325c4.49,2.46,2.22,14.28,0,25.9-3.32,17.32-6.83,19.9-8.63,20.86-2.11,1.13-3.15.74-10.79,1.44s-11.19,1.52-15.83,2.16c-30.13,4.16-55.36,7.64-76.26,5-33.54-4.18-73.62-26.26-84.17-59-4.54-14.07.89-16.12-3.6-32.37-7.24-26.23-29.85-51.59-59-61.87-52.21-18.41-99.39,20.75-102.88,23.74-22.64,19.41-34.31,46.92-38.85,44.6-2.39-1.22-1.84-9.84,1.44-15.83,2.15-3.92,4.37-4.72,10.07-11.51,3.2-3.82,5-6.51,6.47-8.63,7.7-10.86,20.57-23.64,23.74-26.62,8.9-8.38,36.65-29.16,76.26-30.22,10.76-.29,45.14-.71,75.54,24.46,3.79,3.14,13.92,19.83,34.53,52.52,18.42,29.22,18.53,29.63,20.86,31.65,24,20.8,61.66,19.46,82.73,18.71,6-.21,25.79-1.35,27.34-1.44,11.91-.68,15.77-1,20.14-1.44,9-.94,13.51-1.41,13.67-1.44C502.12,324.86,503,324.32,504.24,325Z" transform="translate(-102.2 -105.6)"/><path class="cls-1" d="M491.29,230.76c6.28,3.58,8.61,10.8,12.21,21.74,4.54,13.81,6.81,20.72,4,25-5.95,9.07-26.74,5-48.58,7.22-7.8.8-10.69,1.23-10.69,1.23-6.47.88-8.14,1.39-15.21,1.65-12.71.47-27.59,1-41.73-4.32-11-4.15-19-12.42-34.53-28.78-39.67-41.79-38.8-41-39.57-41.73-31.7-29.3-88.59-32.09-127.34-18-56.17,20.45-80.65,78.74-84.17,76.26-2.56-1.8,9.37-33.34,36.69-59,37.29-35,92.69-49.19,138.85-38.85,32.89,7.37,65.56,28.18,74.1,33.81,17.7,11.68,16.28,14,27.34,18.71,34.71,14.89,81.55,6.52,85.61,5.76C475.12,230.19,483.76,226.47,491.29,230.76Z" transform="translate(-102.2 -105.6)"/><path class="cls-1" d="M428.71,148c27.08,6.91,44.43,38.37,40.29,43.17-1.88,2.18-7-2.58-22.3-3.6-7.54-.5-10.54.37-19.42.72,0,0-10.6.42-28.78-1.44-25.55-2.61-70.09-20-87.05-25.18-52.76-16.07-112.49,2.8-147.48,28.06-36,26-52.25,63.39-54,62.24-1.35-.91,8.89-24.29,27.67-46,45.21-52.27,111.47-62,124.33-63.67,27.1-3.46,55.11-1.34,99.33,2,10.85.82,22.73,2.11,42.33,2.67C422.65,147.54,423.36,146.67,428.71,148Z" transform="translate(-102.2 -105.6)"/><path class="cls-1" d="M499.67,252.33" transform="translate(-102.2 -105.6)"/><path class="cls-1" d="M390.33,124.33c.56-3.94-28-14.84-60.67-18-10.45-1-98.88-8.15-166,55.67-31.53,30-47.37,65.16-46.67,65.67.43.31,8.34-11.21,23.67-28.33s25-27.8,40-37.33c11.26-7.16,20.39-10.44,34.33-15.33a317.89,317.89,0,0,1,62-15C344.2,122.41,389.63,129.22,390.33,124.33Z" transform="translate(-102.2 -105.6)"/></svg>